<svg width="3326" height="1710" viewBox="0 0 3326 1710" fill="none" xmlns="http://www.w3.org/2000/svg">
<path d="M1496.7 1181.5C1451.1 1181.5 1410 1171.3 1373.4 1150.9C1337.4 1129.9 1308.9 1101.4 1287.9 1065.4C1266.9 1028.8 1256.4 987.1 1256.4 940.3C1256.4 892.9 1266.9 851.2 1287.9 815.2C1308.9 779.2 1337.4 751 1373.4 730.6C1409.4 710.2 1450.5 700 1496.7 700C1543.5 700 1584.9 710.2 1620.9 730.6C1657.5 751 1686 779.2 1706.4 815.2C1727.4 851.2 1737.9 892.9 1737.9 940.3C1737.9 987.1 1727.4 1028.8 1706.4 1065.4C1686 1101.4 1657.5 1129.9 1620.9 1150.9C1584.3 1171.3 1542.9 1181.5 1496.7 1181.5ZM1496.7 1124.8C1530.9 1124.8 1561.2 1117.3 1587.6 1102.3C1614 1086.7 1634.7 1065.1 1649.7 1037.5C1665.3 1009.3 1673.1 976.9 1673.1 940.3C1673.1 903.1 1665.3 870.7 1649.7 843.1C1634.7 815.5 1614 794.2 1587.6 779.2C1561.2 763.6 1531.2 755.8 1497.6 755.8C1464 755.8 1434 763.6 1407.6 779.2C1381.2 794.2 1360.2 815.5 1344.6 843.1C1329 870.7 1321.2 903.1 1321.2 940.3C1321.2 976.9 1329 1009.3 1344.6 1037.5C1360.2 1065.1 1381.2 1086.7 1407.6 1102.3C1434 1117.3 1463.7 1124.8 1496.7 1124.8ZM1918.76 1054.6L1920.56 972.7L2214.86 704.5H2293.16L2085.26 903.4L2049.26 934L1918.76 1054.6ZM1868.36 1177V509.2H1932.26V1177H1868.36ZM2234.66 1177L2037.56 931.3L2078.96 881.8L2312.96 1177H2234.66ZM2696.2 1177V1072.6L2693.5 1055.5V880.9C2693.5 840.7 2682.1 809.8 2659.3 788.2C2637.1 766.6 2603.8 755.8 2559.4 755.8C2528.8 755.8 2499.7 760.9 2472.1 771.1C2444.5 781.3 2421.1 794.8 2401.9 811.6L2373.1 763.9C2397.1 743.5 2425.9 727.9 2459.5 717.1C2493.1 705.7 2528.5 700 2565.7 700C2626.9 700 2674 715.3 2707 745.9C2740.6 775.9 2757.4 821.8 2757.4 883.6V1177H2696.2ZM2533.3 1181.5C2497.9 1181.5 2467 1175.8 2440.6 1164.4C2414.8 1152.4 2395 1136.2 2381.2 1115.8C2367.4 1094.8 2360.5 1070.8 2360.5 1043.8C2360.5 1019.2 2366.2 997 2377.6 977.2C2389.6 956.8 2408.8 940.6 2435.2 928.6C2462.2 916 2498.2 909.7 2543.2 909.7H2706.1V957.4H2545C2499.4 957.4 2467.6 965.5 2449.6 981.7C2432.2 997.9 2423.5 1018 2423.5 1042C2423.5 1069 2434 1090.6 2455 1106.8C2476 1123 2505.4 1131.1 2543.2 1131.1C2579.2 1131.1 2610.1 1123 2635.9 1106.8C2662.3 1090 2681.5 1066 2693.5 1034.8L2707.9 1078.9C2695.9 1110.1 2674.9 1135 2644.9 1153.6C2615.5 1172.2 2578.3 1181.5 2533.3 1181.5ZM2930.96 1177V509.2H2994.86V1177H2930.96ZM3172.65 1177V704.5H3236.55V1177H3172.65ZM3205.05 600.1C3191.85 600.1 3180.75 595.6 3171.75 586.6C3162.75 577.6 3158.25 566.8 3158.25 554.2C3158.25 541.6 3162.75 531.1 3171.75 522.7C3180.75 513.7 3191.85 509.2 3205.05 509.2C3218.25 509.2 3229.35 513.4 3238.35 521.8C3247.35 530.2 3251.85 540.7 3251.85 553.3C3251.85 566.5 3247.35 577.6 3238.35 586.6C3229.95 595.6 3218.85 600.1 3205.05 600.1Z" fill="#3B82F6"/>
<g clip-path="url(#clip0_86_16)">
<path d="M3195.06 639.368C3143.98 565.316 3134.5 557.716 3134.5 530.5C3134.5 493.221 3164.72 463 3202 463C3239.28 463 3269.5 493.221 3269.5 530.5C3269.5 557.716 3260.02 565.316 3208.94 639.368C3205.58 644.211 3198.41 644.21 3195.06 639.368Z" fill="#3B82F6"/>
</g>
<path d="M1002.7 900H1009.9L1003.6 907.2C973.6 941.4 937.9 972.9 896.5 1001.7C855.1 1030.5 810.4 1055.4 762.4 1076.4C715 1097.4 666.1 1113.6 615.7 1125C565.3 1137 516.1 1143 468.1 1143C400.3 1143 337.9 1132.5 280.9 1111.5C223.9 1090.5 174.4 1061.1 132.4 1023.3C90.4 985.5 58 940.8 35.2 889.2C11.8 837 0.099999 780.3 0.099999 719.1C0.099999 648.3 14.2 582.9 42.4 522.9C70.6 462.3 109.9 409.5 160.3 364.5C211.3 319.5 270.7 284.7 338.5 260.1C406.9 234.9 481 222.3 560.8 222.3C602.2 222.3 643 225.9 683.2 233.1C723.4 240.3 760.6 250.5 794.8 263.7C829.6 276.9 859.6 292.2 884.8 309.6C910.6 327 929.2 345.6 940.6 365.4L936.1 368.1C924.7 348.3 906.4 330 881.2 313.2C856.6 296.4 827.2 281.7 793 269.1C758.8 255.9 721.6 245.7 681.4 238.5C641.8 231.3 601.6 227.7 560.8 227.7C481.6 227.7 408.1 240 340.3 264.6C273.1 289.2 214.3 323.7 163.9 368.1C114.1 412.5 75.1 464.7 46.9 524.7C19.3 584.1 5.5 648.9 5.5 719.1C5.5 779.7 16.9 835.5 39.7 886.5C62.5 937.5 94.6 981.6 136 1018.8C177.4 1056.6 226.3 1085.7 282.7 1106.1C339.1 1127.1 400.9 1137.6 468.1 1137.6C516.1 1137.6 564.7 1131.9 613.9 1120.5C663.1 1109.7 711.1 1094.1 757.9 1073.7C804.7 1053.3 848.5 1029 889.3 1000.8C930.1 972.6 965.8 941.4 996.4 907.2L1002.7 900ZM393.4 1048.5C420.4 1048.5 451 1043.4 485.2 1033.2C520 1023 555.4 1007.7 591.4 987.3C628 966.9 662.2 941.4 694 910.8C721.6 886.8 750.4 859.8 780.4 829.8C810.4 799.2 840.7 767.4 871.3 734.4C902.5 700.8 933.1 667.5 963.1 634.5C993.7 600.9 1023.1 569.1 1051.3 539.1C1079.5 508.5 1105.9 481.2 1130.5 457.2C1162.3 426 1189.3 404.1 1211.5 391.5C1233.7 378.9 1251.1 372.6 1263.7 372.6C1280.5 372.6 1288.9 382.8 1288.9 403.2C1288.9 429.6 1280.5 458.7 1263.7 490.5C1246.9 522.3 1223.5 555 1193.5 588.6C1163.5 622.2 1128.7 655.5 1089.1 688.5C1049.5 721.5 1006.6 752.7 960.4 782.1C914.8 810.9 867.4 836.7 818.2 859.5C769 881.7 720.1 899.4 671.5 912.6C622.9 925.2 576.1 931.5 531.1 931.5C455.5 931.5 393.1 920.1 343.9 897.3C294.7 874.5 257.8 844.2 233.2 806.4C209.2 768 197.2 725.4 197.2 678.6C197.2 637.8 206.5 600.3 225.1 566.1C244.3 531.3 271 501 305.2 475.2C339.4 449.4 379.3 429.3 424.9 414.9C471.1 400.5 521.2 393.3 575.2 393.3C633.4 393.3 679.9 402 714.7 419.4C749.5 436.8 774.7 459.3 790.3 486.9C806.5 513.9 814.6 542.4 814.6 572.4C814.6 600 807.1 625.8 792.1 649.8C777.7 673.8 757.6 694.8 731.8 712.8C706.6 730.8 676.9 744.9 642.7 755.1C609.1 765.3 573.1 770.4 534.7 770.4C488.5 770.4 451 761.7 422.2 744.3C393.4 726.9 379 703.8 379 675C379 649.2 390.4 626.1 413.2 605.7C436.6 585.3 467.8 569.1 506.8 557.1C546.4 545.1 590.8 539.1 640 539.1C683.2 539.1 727.9 543.9 774.1 553.5C820.9 562.5 866.2 575.4 910 592.2C953.8 608.4 993.7 627.3 1029.7 648.9C1065.7 670.5 1094.5 693.6 1116.1 718.2L1112.5 721.8C1090.9 697.8 1062.4 675.3 1027 654.3C991.6 632.7 952 613.8 908.2 597.6C865 580.8 820.3 567.9 774.1 558.9C727.9 549.3 683.2 544.5 640 544.5C592 544.5 548.5 550.5 509.5 562.5C471.1 573.9 440.5 589.5 417.7 609.3C395.5 628.5 384.4 650.4 384.4 675C384.4 702 398.2 723.9 425.8 740.7C453.4 756.9 489.7 765 534.7 765C585.7 765 631.9 756.3 673.3 738.9C714.7 721.5 747.7 698.4 772.3 669.6C796.9 640.2 809.2 607.8 809.2 572.4C809.2 519 788.2 476.7 746.2 445.5C704.8 414.3 647.8 398.7 575.2 398.7C521.8 398.7 472.3 405.9 426.7 420.3C381.7 434.1 342.4 453.6 308.8 478.8C275.2 504 249.1 533.7 230.5 567.9C211.9 602.1 202.6 639 202.6 678.6C202.6 729.6 215.8 773.7 242.2 810.9C268.6 847.5 306.4 876 355.6 896.4C404.8 916.2 463.3 926.1 531.1 926.1C583.3 926.1 637.6 917.7 694 900.9C751 883.5 807.7 860.4 864.1 831.6C920.5 802.2 973.9 769.2 1024.3 732.6C1074.7 696 1119.1 658.2 1157.5 619.2C1196.5 580.2 1227.1 542.1 1249.3 504.9C1272.1 467.1 1283.5 433.2 1283.5 403.2C1283.5 386.4 1276.9 378 1263.7 378C1251.7 378 1235.2 384.6 1214.2 397.8C1193.8 411 1168 432.6 1136.8 462.6C1106.2 493.8 1075 530.7 1043.2 573.3C1012 615.9 979.9 660.3 946.9 706.5C913.9 752.1 879.4 796.8 843.4 840.6C807.4 883.8 769.6 922.2 730 955.8C689.8 989.4 645.7 1016.4 597.7 1036.8C550.3 1057.2 502.6 1067.4 454.6 1067.4C413.8 1067.4 383.2 1064.4 362.8 1058.4C343 1053 329.8 1046.1 323.2 1037.7C316.6 1029.3 313.3 1021.2 313.3 1013.4C313.3 1005 317.8 996.9 326.8 989.1C336.4 981.3 350.8 977.4 370 977.4C410.8 977.4 450.1 984.6 487.9 999C526.3 1012.8 564.1 1030.5 601.3 1052.1C638.5 1074.3 676 1097.7 713.8 1122.3C751.6 1146.9 790 1170 829 1191.6C868.6 1213.8 909.7 1231.8 952.3 1245.6C994.9 1260 1039.6 1267.2 1086.4 1267.2C1136.2 1267.2 1175.2 1259.1 1203.4 1242.9C1231.6 1226.7 1245.7 1204.2 1245.7 1175.4C1245.7 1160.4 1240.3 1144.8 1229.5 1128.6L1234 1125.9C1246.6 1145.7 1252.9 1164 1252.9 1180.8C1252.9 1213.8 1236.4 1240.2 1203.4 1260C1170.4 1279.8 1125.7 1289.7 1069.3 1289.7C1041.1 1289.7 1013.8 1286.7 987.4 1280.7C961 1275.3 933.1 1265.7 903.7 1251.9C874.3 1238.1 840.7 1219.2 802.9 1195.2C765.1 1171.2 720.4 1140.6 668.8 1103.4C616 1065 563.2 1035.3 510.4 1014.3C458.2 992.7 411.7 982.2 370.9 982.8C355.9 982.8 343.3 985.5 333.1 990.9C323.5 996.3 318.7 1003.2 318.7 1011.6C318.7 1023 325.6 1032 339.4 1038.6C353.2 1045.2 371.2 1048.5 393.4 1048.5Z" fill="#3B82F6"/>
<defs>
<clipPath id="clip0_86_16">
<rect width="180" height="180" fill="white" transform="translate(3112 463)"/>
</clipPath>
</defs>
</svg>
